<svg xmlns="http://www.w3.org/2000/svg" xmlns:xlink="http://www.w3.org/1999/xlink" width="200" zoomAndPan="magnify" viewBox="0 0 150 37.5" height="50" preserveAspectRatio="xMidYMid meet" version="1.0"><defs><g/></defs><g fill="#f1f1e7" fill-opacity="1"><g transform="translate(3.140681, 25.908588)"><g><path d="M 1.640625 0 L 1.640625 -13.984375 L 6.453125 -13.984375 L 6.453125 -12.5 L 6.515625 -12.5 C 7.765625 -13.757812 9.097656 -14.390625 10.515625 -14.390625 C 11.535156 -14.390625 12.488281 -14.179688 13.375 -13.765625 C 14.269531 -13.347656 14.941406 -12.703125 15.390625 -11.828125 C 16.804688 -13.535156 18.351562 -14.390625 20.03125 -14.390625 C 21.519531 -14.390625 22.800781 -13.96875 23.875 -13.125 C 24.945312 -12.289062 25.484375 -10.984375 25.484375 -9.203125 L 25.484375 0 L 20.65625 0 L 20.65625 -7.90625 C 20.65625 -8.644531 20.445312 -9.265625 20.03125 -9.765625 C 19.625 -10.265625 19.015625 -10.515625 18.203125 -10.515625 C 17.492188 -10.515625 16.953125 -10.300781 16.578125 -9.875 C 16.203125 -9.445312 16 -8.9375 15.96875 -8.34375 L 15.96875 0 L 11.140625 0 L 11.140625 -7.90625 C 11.140625 -8.644531 10.9375 -9.265625 10.53125 -9.765625 C 10.125 -10.265625 9.507812 -10.515625 8.6875 -10.515625 C 7.945312 -10.515625 7.390625 -10.28125 7.015625 -9.8125 C 6.640625 -9.351562 6.453125 -8.804688 6.453125 -8.171875 L 6.453125 0 Z M 1.640625 0 "/></g></g></g><g fill="#f1f1e7" fill-opacity="1"><g transform="translate(27.425146, 25.908588)"><g><path d="M 2.953125 -1.65625 C 1.398438 -3.039062 0.625 -4.8125 0.625 -6.96875 C 0.625 -9.132812 1.429688 -10.910156 3.046875 -12.296875 C 4.671875 -13.691406 6.671875 -14.390625 9.046875 -14.390625 C 11.390625 -14.390625 13.363281 -13.6875 14.96875 -12.28125 C 16.582031 -10.882812 17.390625 -9.113281 17.390625 -6.96875 C 17.390625 -4.832031 16.601562 -3.066406 15.03125 -1.671875 C 13.457031 -0.285156 11.460938 0.40625 9.046875 0.40625 C 6.535156 0.40625 4.503906 -0.28125 2.953125 -1.65625 Z M 6.6875 -9.34375 C 6.0625 -8.726562 5.75 -7.9375 5.75 -6.96875 C 5.75 -6.007812 6.046875 -5.222656 6.640625 -4.609375 C 7.242188 -4.003906 8.035156 -3.703125 9.015625 -3.703125 C 9.960938 -3.703125 10.738281 -4.007812 11.34375 -4.625 C 11.957031 -5.25 12.265625 -6.03125 12.265625 -6.96875 C 12.265625 -7.9375 11.945312 -8.726562 11.3125 -9.34375 C 10.6875 -9.957031 9.921875 -10.265625 9.015625 -10.265625 C 8.085938 -10.265625 7.3125 -9.957031 6.6875 -9.34375 Z M 6.6875 -9.34375 "/></g></g></g><g fill="#f1f1e7" fill-opacity="1"><g transform="translate(42.87886, 25.908588)"><g><path d="M 1.640625 0 L 1.640625 -23.4375 L 6.453125 -23.4375 L 6.453125 0 Z M 1.640625 0 "/></g></g></g><g fill="#f1f1e7" fill-opacity="1"><g transform="translate(48.411605, 25.908588)"><g><path d="M 2.578125 -1.734375 C 1.273438 -3.160156 0.625 -4.90625 0.625 -6.96875 C 0.625 -9.039062 1.273438 -10.796875 2.578125 -12.234375 C 3.890625 -13.671875 5.554688 -14.390625 7.578125 -14.390625 C 9.429688 -14.390625 10.957031 -13.804688 12.15625 -12.640625 L 12.15625 -13.984375 L 16.984375 -13.984375 L 16.984375 0 L 12.203125 0 L 12.203125 -1.578125 L 12.15625 -1.578125 C 10.957031 -0.253906 9.429688 0.40625 7.578125 0.40625 C 5.554688 0.40625 3.890625 -0.304688 2.578125 -1.734375 Z M 6.6875 -9.34375 C 6.0625 -8.726562 5.75 -7.9375 5.75 -6.96875 C 5.75 -6.007812 6.046875 -5.222656 6.640625 -4.609375 C 7.242188 -4.003906 8.035156 -3.703125 9.015625 -3.703125 C 9.960938 -3.703125 10.738281 -4.007812 11.34375 -4.625 C 11.957031 -5.25 12.265625 -6.03125 12.265625 -6.96875 C 12.265625 -7.9375 11.945312 -8.726562 11.3125 -9.34375 C 10.6875 -9.957031 9.921875 -10.265625 9.015625 -10.265625 C 8.085938 -10.265625 7.3125 -9.957031 6.6875 -9.34375 Z M 6.6875 -9.34375 "/></g></g></g><g fill="#f1f1e7" fill-opacity="1"><g transform="translate(64.464936, 25.908588)"><g><path d="M 1.640625 0 L 1.640625 -13.984375 L 6.453125 -13.984375 L 6.453125 -11.96875 L 6.515625 -11.96875 C 6.546875 -12.039062 6.601562 -12.128906 6.6875 -12.234375 C 6.769531 -12.347656 6.945312 -12.539062 7.21875 -12.8125 C 7.488281 -13.082031 7.78125 -13.328125 8.09375 -13.546875 C 8.40625 -13.765625 8.804688 -13.957031 9.296875 -14.125 C 9.785156 -14.300781 10.285156 -14.390625 10.796875 -14.390625 C 11.316406 -14.390625 11.832031 -14.316406 12.34375 -14.171875 C 12.851562 -14.023438 13.226562 -13.878906 13.46875 -13.734375 L 13.84375 -13.515625 L 11.828125 -9.421875 C 11.222656 -9.929688 10.382812 -10.1875 9.3125 -10.1875 C 8.738281 -10.1875 8.238281 -10.054688 7.8125 -9.796875 C 7.394531 -9.546875 7.097656 -9.238281 6.921875 -8.875 C 6.753906 -8.519531 6.632812 -8.210938 6.5625 -7.953125 C 6.488281 -7.703125 6.453125 -7.503906 6.453125 -7.359375 L 6.453125 0 Z M 1.640625 0 "/></g></g></g><g fill="#f1f1e7" fill-opacity="1"><g transform="translate(75.476015, 25.908588)"><g><path d="M 2.578125 -1.734375 C 1.273438 -3.160156 0.625 -4.90625 0.625 -6.96875 C 0.625 -9.039062 1.273438 -10.796875 2.578125 -12.234375 C 3.890625 -13.671875 5.554688 -14.390625 7.578125 -14.390625 C 9.429688 -14.390625 10.957031 -13.804688 12.15625 -12.640625 L 12.15625 -13.984375 L 16.984375 -13.984375 L 16.984375 0 L 12.203125 0 L 12.203125 -1.578125 L 12.15625 -1.578125 C 10.957031 -0.253906 9.429688 0.40625 7.578125 0.40625 C 5.554688 0.40625 3.890625 -0.304688 2.578125 -1.734375 Z M 6.6875 -9.34375 C 6.0625 -8.726562 5.75 -7.9375 5.75 -6.96875 C 5.75 -6.007812 6.046875 -5.222656 6.640625 -4.609375 C 7.242188 -4.003906 8.035156 -3.703125 9.015625 -3.703125 C 9.960938 -3.703125 10.738281 -4.007812 11.34375 -4.625 C 11.957031 -5.25 12.265625 -6.03125 12.265625 -6.96875 C 12.265625 -7.9375 11.945312 -8.726562 11.3125 -9.34375 C 10.6875 -9.957031 9.921875 -10.265625 9.015625 -10.265625 C 8.085938 -10.265625 7.3125 -9.957031 6.6875 -9.34375 Z M 6.6875 -9.34375 "/></g></g></g><g fill="#f1f1e7" fill-opacity="1"><g transform="translate(91.529346, 25.908588)"><g><path d="M 2.09375 -21.765625 C 2.65625 -22.335938 3.328125 -22.625 4.109375 -22.625 C 4.890625 -22.625 5.5625 -22.335938 6.125 -21.765625 C 6.6875 -21.203125 6.96875 -20.53125 6.96875 -19.75 C 6.96875 -18.96875 6.6875 -18.296875 6.125 -17.734375 C 5.5625 -17.171875 4.890625 -16.890625 4.109375 -16.890625 C 3.328125 -16.890625 2.65625 -17.171875 2.09375 -17.734375 C 1.53125 -18.296875 1.25 -18.96875 1.25 -19.75 C 1.25 -20.53125 1.53125 -21.203125 2.09375 -21.765625 Z M 1.640625 -13.984375 L 1.640625 0 L 6.453125 0 L 6.453125 -13.984375 Z M 1.640625 -13.984375 "/></g></g></g><g fill="#f1f1e7" fill-opacity="1"><g transform="translate(97.198369, 25.908588)"><g><path d="M 9.078125 -10.4375 C 8.171875 -10.4375 7.390625 -10.097656 6.734375 -9.421875 C 6.078125 -8.753906 5.75 -7.945312 5.75 -7 C 5.75 -6.039062 6.078125 -5.222656 6.734375 -4.546875 C 7.390625 -3.878906 8.171875 -3.546875 9.078125 -3.546875 C 9.515625 -3.546875 9.925781 -3.597656 10.3125 -3.703125 C 10.707031 -3.816406 10.992188 -3.925781 11.171875 -4.03125 L 11.421875 -4.203125 L 13.046875 -0.84375 C 12.921875 -0.75 12.742188 -0.632812 12.515625 -0.5 C 12.296875 -0.363281 11.78125 -0.179688 10.96875 0.046875 C 10.15625 0.285156 9.285156 0.40625 8.359375 0.40625 C 6.304688 0.40625 4.503906 -0.3125 2.953125 -1.75 C 1.398438 -3.195312 0.625 -4.929688 0.625 -6.953125 C 0.625 -8.984375 1.398438 -10.726562 2.953125 -12.1875 C 4.503906 -13.65625 6.304688 -14.390625 8.359375 -14.390625 C 9.285156 -14.390625 10.140625 -14.28125 10.921875 -14.0625 C 11.703125 -13.84375 12.257812 -13.625 12.59375 -13.40625 L 13.046875 -13.078125 L 11.421875 -9.78125 C 10.816406 -10.21875 10.035156 -10.4375 9.078125 -10.4375 Z M 9.078125 -10.4375 "/></g></g></g><g fill="#f1f1e7" fill-opacity="1"><g transform="translate(108.018659, 25.908588)"><g><path d="M 1.640625 0 L 1.640625 -23.4375 L 6.453125 -23.4375 L 6.453125 -12.5 L 6.515625 -12.5 C 7.765625 -13.757812 9.097656 -14.390625 10.515625 -14.390625 C 11.203125 -14.390625 11.882812 -14.296875 12.5625 -14.109375 C 13.25 -13.929688 13.90625 -13.648438 14.53125 -13.265625 C 15.164062 -12.890625 15.675781 -12.347656 16.0625 -11.640625 C 16.457031 -10.941406 16.65625 -10.128906 16.65625 -9.203125 L 16.65625 0 L 11.828125 0 L 11.828125 -7.90625 C 11.828125 -8.632812 11.59375 -9.269531 11.125 -9.8125 C 10.664062 -10.351562 10.0625 -10.625 9.3125 -10.625 C 8.59375 -10.625 7.9375 -10.34375 7.34375 -9.78125 C 6.75 -9.21875 6.453125 -8.59375 6.453125 -7.90625 L 6.453125 0 Z M 1.640625 0 "/></g></g></g><g fill="#f1f1e7" fill-opacity="1"><g transform="translate(123.472369, 25.908588)"><g><path d="M 15.78125 -6.328125 L 5.640625 -6.328125 C 5.640625 -5.335938 5.957031 -4.609375 6.59375 -4.140625 C 7.226562 -3.671875 7.921875 -3.4375 8.671875 -3.4375 C 9.453125 -3.4375 10.066406 -3.539062 10.515625 -3.75 C 10.972656 -3.957031 11.492188 -4.367188 12.078125 -4.984375 L 15.5625 -3.25 C 14.101562 -0.8125 11.6875 0.40625 8.3125 0.40625 C 6.207031 0.40625 4.398438 -0.3125 2.890625 -1.75 C 1.378906 -3.195312 0.625 -4.9375 0.625 -6.96875 C 0.625 -9.007812 1.378906 -10.753906 2.890625 -12.203125 C 4.398438 -13.660156 6.207031 -14.390625 8.3125 -14.390625 C 10.53125 -14.390625 12.332031 -13.75 13.71875 -12.46875 C 15.113281 -11.1875 15.8125 -9.351562 15.8125 -6.96875 C 15.8125 -6.644531 15.800781 -6.429688 15.78125 -6.328125 Z M 5.78125 -9 L 11.09375 -9 C 10.976562 -9.71875 10.6875 -10.269531 10.21875 -10.65625 C 9.757812 -11.050781 9.171875 -11.25 8.453125 -11.25 C 7.648438 -11.25 7.007812 -11.039062 6.53125 -10.625 C 6.0625 -10.207031 5.8125 -9.664062 5.78125 -9 Z M 5.78125 -9 "/></g></g></g><g fill="#f1f1e7" fill-opacity="1"><g transform="translate(137.345265, 25.908588)"><g><path d="M 4.734375 -5.828125 C 5.609375 -5.828125 6.347656 -5.519531 6.953125 -4.90625 C 7.566406 -4.300781 7.875 -3.566406 7.875 -2.703125 C 7.875 -1.847656 7.566406 -1.113281 6.953125 -0.5 C 6.347656 0.101562 5.609375 0.40625 4.734375 0.40625 C 3.878906 0.40625 3.148438 0.101562 2.546875 -0.5 C 1.941406 -1.113281 1.640625 -1.847656 1.640625 -2.703125 C 1.640625 -3.566406 1.941406 -4.300781 2.546875 -4.90625 C 3.148438 -5.519531 3.878906 -5.828125 4.734375 -5.828125 Z M 4.734375 -5.828125 "/></g></g></g></svg>